<svg width="40" height="40" viewBox="0 0 40 40" fill="none" xmlns="http://www.w3.org/2000/svg">
<path d="M38.3672 19.6834L19.6836 1.3114L1 19.9948L19.6836 38.3667L38.3672 19.6834Z" stroke="#F3F2F2"/>
<path d="M2.55664 23.7314L10.0301 38.3667H17.1921" stroke="#F3F2F2"/>
<path d="M21.5522 38.0552H29.0257L36.1877 23.4199" stroke="#F3F2F2"/>
<path d="M36.1877 15.6353L28.7143 1H21.5522" stroke="#F3F2F2"/>
<path d="M17.1927 1H10.0307L2.86865 15.6353" stroke="#F3F2F2"/>
<path d="M36.8105 18.1265L18.127 36.8098" stroke="#F3F2F2"/>
<path d="M20.9302 2.55713L2.24658 21.2405" stroke="#F3F2F2"/>
<path d="M3.49072 22.4856L8.78441 17.5034" stroke="#F3F2F2"/>
<path d="M5.04736 24.0428L8.78408 20.3062" stroke="#F3F2F2"/>
<path d="M6.60596 25.2885L9.0971 22.7974" stroke="#F3F2F2"/>
<path d="M35.2522 16.8809L29.9585 22.1745" stroke="#F3F2F2"/>
<path d="M34.0072 15.3237L30.2705 19.0604" stroke="#F3F2F2"/>
<path d="M32.451 13.7671L29.6484 16.5696" stroke="#F3F2F2"/>
<path d="M28.5251 19.3721C28.5251 24.0523 24.459 27.9024 19.3719 27.9024C14.2848 27.9024 10.2188 24.0523 10.2188 19.3721C10.2188 14.6918 14.2848 10.8418 19.3719 10.8418C24.459 10.8418 28.5251 14.6918 28.5251 19.3721Z" stroke="#F3F2F2"/>
<path d="M21.501 10.9998L28.501 17.9998" stroke="#F3F2F2"/>
<path d="M18.127 10.6528L28.4029 21.2401" stroke="#F3F2F2"/>
<path d="M15.9463 11.2759L27.7792 23.1087" stroke="#F3F2F2"/>
<path d="M14.0776 12.5215L26.5334 24.9771" stroke="#F3F2F2"/>
<path d="M12.5215 13.7671L24.9772 26.2227" stroke="#F3F2F2"/>
<path d="M11.2749 15.6353L23.1078 27.1567" stroke="#F3F2F2"/>
<path d="M10.3428 17.5034L20.9301 28.0907" stroke="#F3F2F2"/>
<path d="M10 20L18 28" stroke="#F3F2F2"/>
</svg>
