<svg width="40" height="41" viewBox="0 0 40 41" fill="none" xmlns="http://www.w3.org/2000/svg">
<path d="M8.61432 12.7481C8.46511 11.5544 9.39588 10.5 10.5989 10.5H34.6666C35.7712 10.5 36.6666 11.3954 36.6666 12.5V19.5121C36.6666 20.5443 35.8811 21.407 34.8533 21.5033L11.9307 23.6523C10.8549 23.7532 9.89348 22.9813 9.75945 21.9091L8.61432 12.7481Z" stroke="#181818" stroke-width="2"/>
<path d="M9.16665 18.8333L7.59882 4.72282C7.54255 4.21639 7.11449 3.83325 6.60494 3.83325H3.33331" stroke="#181818" stroke-width="2" stroke-linecap="round"/>
<path d="M19 32.1665C19 34.3756 17.2091 36.1665 15 36.1665C12.7909 36.1665 11 34.3756 11 32.1665C11 29.9574 12.7909 28.1665 15 28.1665C17.2091 28.1665 19 29.9574 19 32.1665Z" stroke="#181818" stroke-width="2"/>
<path d="M34 32.1665C34 34.3756 32.2091 36.1665 30 36.1665C27.7909 36.1665 26 34.3756 26 32.1665C26 29.9574 27.7909 28.1665 30 28.1665C32.2091 28.1665 34 29.9574 34 32.1665Z" stroke="#181818" stroke-width="2"/>
</svg>
