<svg width="36" height="36" viewBox="0 0 36 36" fill="none" xmlns="http://www.w3.org/2000/svg">
<path d="M6.61432 10.7481C6.46511 9.55436 7.39588 8.5 8.59888 8.5H32.6666C33.7712 8.5 34.6666 9.39543 34.6666 10.5V17.5121C34.6666 18.5443 33.8811 19.407 32.8533 19.5033L9.93069 21.6523C8.85488 21.7532 7.89348 20.9813 7.75945 19.9091L6.61432 10.7481Z" stroke="#FEFEFE" stroke-width="2"/>
<path d="M7.16665 16.8333L5.59882 2.72282C5.54255 2.21639 5.11449 1.83325 4.60494 1.83325H1.33331" stroke="#FEFEFE" stroke-width="2" stroke-linecap="round"/>
<path d="M17 30.1665C17 32.3756 15.2091 34.1665 13 34.1665C10.7909 34.1665 9 32.3756 9 30.1665C9 27.9574 10.7909 26.1665 13 26.1665C15.2091 26.1665 17 27.9574 17 30.1665Z" stroke="#FEFEFE" stroke-width="2"/>
<path d="M32 30.1665C32 32.3756 30.2091 34.1665 28 34.1665C25.7909 34.1665 24 32.3756 24 30.1665C24 27.9574 25.7909 26.1665 28 26.1665C30.2091 26.1665 32 27.9574 32 30.1665Z" stroke="#FEFEFE" stroke-width="2"/>
</svg>
